<svg width="19" height="18" viewBox="0 0 19 18" fill="none" xmlns="http://www.w3.org/2000/svg">
<path d="M14.2337 9.56306C14.2133 7.28694 16.0927 6.19422 16.1777 6.14094C15.1201 4.59368 13.4742 4.38172 12.8871 4.35678C11.4872 4.21509 10.1541 5.18085 9.44454 5.18085C8.73496 5.18085 7.6377 4.37718 6.47697 4.39986C4.94898 4.42253 3.54228 5.2874 2.75561 6.65443C1.16981 9.4055 2.35095 13.4828 3.89481 15.7158C4.65087 16.8074 5.55088 18.0373 6.73428 17.9919C7.87461 17.9466 8.30535 17.2552 9.68145 17.2552C11.0575 17.2552 11.4452 17.992 12.6501 17.9704C13.8755 17.9466 14.6531 16.855 15.4035 15.76C16.2695 14.4928 16.6277 13.2663 16.6481 13.2017C16.6209 13.1903 14.2586 12.2847 14.2337 9.56306Z" fill="#092540"/>
<path d="M11.97 2.87965C12.598 2.11905 13.0219 1.06146 12.9052 0.00732422C12.0006 0.0436363 10.9056 0.610372 10.2561 1.37097C9.67462 2.04318 9.16454 3.12 9.30276 4.15267C10.3116 4.23088 11.342 3.63913 11.97 2.87965Z" fill="#092540"/>
</svg>
