<svg width="168" height="36" viewBox="0 0 168 36" fill="none" xmlns="http://www.w3.org/2000/svg">
<path d="M10.8162 10.1093C8.37989 10.1093 6.31839 10.9236 4.63172 12.521C2.97627 14.1184 2.13293 16.0916 2.13293 18.472C2.13293 20.8524 2.97627 22.8256 4.63172 24.423C6.31839 26.0204 8.37989 26.8034 10.8162 26.8034C13.4087 26.8034 15.5951 25.8324 17.3755 23.8592L14.4394 20.9464C13.4087 22.0426 12.2218 22.5751 10.8162 22.5751C8.56729 22.5751 6.78691 20.8524 6.78691 18.472C6.78691 16.0916 8.53606 14.3376 10.8162 14.3376C12.2218 14.3376 13.4087 14.8701 14.4394 15.9663L17.3755 13.0534C15.5951 11.0802 13.4087 10.1093 10.8162 10.1093Z" fill="#092540"/>
<path d="M27.1061 10.1406C24.6698 10.1406 22.6083 10.9549 20.8904 12.5836C19.2037 14.181 18.3604 16.1542 18.3604 18.5033C18.3604 20.8524 19.2037 22.8256 20.8904 24.4543C22.6083 26.0517 24.6698 26.866 27.1061 26.866C29.5112 26.866 31.5727 26.0517 33.2906 24.4543C35.0085 22.8256 35.8518 20.8524 35.8518 18.5033C35.8518 16.1542 35.0085 14.181 33.2906 12.5836C31.5727 10.9549 29.5112 10.1406 27.1061 10.1406ZM23.0143 18.5033C23.0143 17.3444 23.4204 16.3735 24.2013 15.5905C24.9821 14.7761 25.9504 14.3689 27.1061 14.3689C28.2618 14.3689 29.2301 14.7761 30.0109 15.5905C30.7918 16.3735 31.1978 17.3444 31.1978 18.5033C31.1978 19.6622 30.7918 20.6332 30.0109 21.4475C29.2301 22.2305 28.2618 22.6377 27.1061 22.6377C25.9504 22.6377 24.9821 22.2305 24.2013 21.4475C23.4204 20.6645 23.0143 19.6622 23.0143 18.5033Z" fill="#092540"/>
<path d="M38.5758 31.0631C40.6686 32.5352 43.2298 33.2869 46.2908 33.2869C48.571 33.2869 50.4763 32.6918 52.0068 31.4702C54.162 29.8102 54.7554 27.4298 54.7554 23.7653V10.6104H50.1015V12.6776C49.6329 11.2995 47.7901 10.3285 45.4162 10.3285C43.1986 10.3285 41.3245 11.1115 39.8252 12.7089C38.3572 14.275 37.6076 16.2169 37.6076 18.5033C37.6076 20.7584 38.3572 22.669 39.8252 24.2038C41.3245 25.7385 43.1986 26.4902 45.4162 26.4902C47.6964 26.4902 49.5705 25.7072 50.2264 24.5796V24.9241C50.2264 26.5842 49.7579 27.743 48.8521 28.3695C48.0712 28.9019 46.978 29.1838 45.6349 29.1838C43.9794 29.1838 42.3865 28.6827 40.7935 27.6804L38.5758 31.0631ZM42.2615 18.5033C42.2615 17.4071 42.6364 16.4674 43.4172 15.7157C44.1981 14.9327 45.1351 14.5569 46.2596 14.5569C47.4153 14.5569 48.3836 14.9327 49.1644 15.7157C49.9765 16.4674 50.3826 17.4071 50.3826 18.5033C50.3826 19.5996 49.9765 20.5079 49.1644 21.2596C48.3836 22.0113 47.4153 22.3871 46.2596 22.3871C45.1351 22.3871 44.1981 22.0113 43.4172 21.2596C42.6364 20.5079 42.2615 19.5996 42.2615 18.5033Z" fill="#092540"/>
<path d="M56.5678 24.0158C58.0983 25.8951 60.3784 26.8347 63.4394 26.8347C68.0622 26.8347 70.3736 24.7362 70.3736 21.5101C70.3736 19.4116 69.0929 17.9082 66.5004 17.0312C64.7513 16.4048 63.4394 16.1856 62.846 15.935C62.3462 15.7157 62.19 15.4965 62.19 15.0893C62.19 14.4942 62.7523 14.087 63.7518 14.087C65.0949 14.087 66.2193 14.4629 67.0627 15.2459L69.2803 12.1765C67.8748 10.8296 66.0944 10.1406 63.8767 10.1406C62.1588 10.1406 60.722 10.5791 59.5351 11.4874C58.3482 12.3644 57.7547 13.6172 57.7547 15.2146C57.7547 17.3131 58.9729 18.7539 61.3779 19.5996C61.8465 19.7562 62.5649 19.9754 63.5019 20.1947C64.4389 20.4139 65.0636 20.6331 65.4072 20.8211C65.7508 21.009 65.9382 21.2596 65.9382 21.5728C65.9382 22.4185 65.1573 22.8569 63.5644 22.8569C61.784 22.8569 60.1286 22.1679 59.254 21.1343L56.5678 24.0158Z" fill="#092540"/>
<path d="M79.2191 26.3962L81.9677 17.3758L84.7476 26.3962H88.5895L93.5871 10.6104H89.2767L86.4968 19.4116L83.7794 10.6104H80.1561L77.4699 19.4116L74.69 10.6104H70.3796L75.346 26.3962H79.2191Z" fill="#092540"/>
<path d="M102.265 10.1406C99.8284 10.1406 97.7669 10.9549 96.049 12.5836C94.3623 14.181 93.519 16.1542 93.519 18.5033C93.519 20.8524 94.3623 22.8256 96.049 24.4543C97.7669 26.0517 99.8284 26.866 102.265 26.866C104.67 26.866 106.731 26.0517 108.449 24.4543C110.167 22.8256 111.01 20.8524 111.01 18.5033C111.01 16.1542 110.167 14.181 108.449 12.5836C106.731 10.9549 104.67 10.1406 102.265 10.1406ZM98.173 18.5033C98.173 17.3444 98.579 16.3735 99.3599 15.5905C100.141 14.7761 101.109 14.3689 102.265 14.3689C103.42 14.3689 104.389 14.7761 105.17 15.5905C105.95 16.3735 106.356 17.3444 106.356 18.5033C106.356 19.6622 105.95 20.6332 105.17 21.4475C104.389 22.2305 103.42 22.6377 102.265 22.6377C101.109 22.6377 100.141 22.2305 99.3599 21.4475C98.579 20.6645 98.173 19.6622 98.173 18.5033Z" fill="#092540"/>
<path d="M118.107 26.3962V18.6912C118.107 16.0916 119.669 14.5882 122.324 14.5882C122.886 14.5882 123.417 14.6508 123.886 14.7448V10.3598C123.386 10.2972 122.98 10.2659 122.668 10.2659C120.512 10.2659 118.826 11.1742 118.107 12.7716V10.6104H113.453V26.3962H118.107Z" fill="#092540"/>
<path d="M127.14 21.1656C127.14 24.9241 128.951 26.8034 132.575 26.8034C133.48 26.8034 134.23 26.7408 134.855 26.5842V22.4498C134.324 22.5437 133.918 22.5751 133.668 22.5751C132.262 22.5751 131.669 21.98 131.669 20.4765V14.8387H135.167V10.6104H131.669V4.56543H127.14V10.6104H125.078V14.8387H127.14V21.1656Z" fill="#092540"/>
<path d="M141.838 26.3962V17.5324C141.838 15.6844 143.025 14.4003 144.743 14.4003C146.461 14.4003 147.429 15.5278 147.429 17.3758V22.0739C147.429 25.0807 148.804 26.5842 151.584 26.5842C152.489 26.5842 153.145 26.5215 153.583 26.3649V22.4185C153.551 22.4185 153.27 22.4498 153.114 22.4498C152.333 22.4498 152.083 22.0113 152.083 20.7898V16.812C152.083 12.7089 149.959 10.2659 146.243 10.2659C144.15 10.2659 142.463 11.1429 141.838 12.521V4.56543H137.184V26.3962H141.838Z" fill="#092540"/>
</svg>
